<svg width="256" height="256" viewBox="0 0 256 256" fill="none" xmlns="http://www.w3.org/2000/svg">
  <rect width="256" height="256" rx="64" fill="#0C0C0C"/>
  <rect x="12" y="12" width="232" height="232" rx="52" stroke="rgba(255,255,255,0.15)" stroke-width="2"/>
  <path d="M0 128C70.692 128 128 185.308 128 256H64C64 220.654 35.346 192 0 192V128Z" fill="white"/>
  <path d="M256 192C220.654 192 192 220.654 192 256H128C128 185.308 185.308 128 256 128V192Z" fill="white"/>
  <path d="M128 0C128 70.692 70.692 128 0 128V64C35.346 64 64 35.346 64 0H128Z" fill="white"/>
  <path d="M192 0C192 35.346 220.654 64 256 64V128C185.308 128 128 70.692 128 0H192Z" fill="white"/>
</svg>
